<svg xmlns="http://www.w3.org/2000/svg" xmlns:xlink="http://www.w3.org/1999/xlink" width="897pt" height="641pt" viewBox="0.00 0.00 897.36 640.80">
<g id="graph0" class="graph" transform="scale(1 1) rotate(0) translate(4 636.8)">
<title>G</title>
<polygon fill="white" stroke="none" points="-4,4 -4,-636.8 893.36,-636.8 893.36,4 -4,4"/>
<g id="clust1" class="cluster">
<title>cluster_dwh_refresh</title>
<polygon fill="none" stroke="black" points="35.36,-8 35.36,-588.8 881.36,-588.8 881.36,-8 35.36,-8"/>
<text text-anchor="middle" x="458.36" y="-572.2" font-family="Times,serif" font-size="14.00">dwh_refresh DAG</text>
</g>
<!-- dwh_refresh_start -->
<g id="node1" class="node">
<title>dwh_refresh_start</title>
<ellipse fill="none" stroke="black" cx="458.36" cy="-538" rx="80.76" ry="18"/>
<text text-anchor="middle" x="458.36" y="-533.8" font-family="Times,serif" font-size="14.00">dwh_refresh_start</text>
</g>
<!-- create recursive directory tree files (tree.csv) on remote storage -->
<g id="node2" class="node">
<title>create recursive directory tree files (tree.csv) on remote storage</title>
<ellipse fill="none" stroke="black" cx="458.36" cy="-466" rx="255.28" ry="18"/>
<text text-anchor="middle" x="458.36" y="-461.8" font-family="Times,serif" font-size="14.00">create recursive directory tree files (tree.csv) on remote storage</text>
</g>
<!-- dwh_refresh_start&#45;&gt;create recursive directory tree files (tree.csv) on remote storage -->
<g id="edge1" class="edge">
<title>dwh_refresh_start-&gt;create recursive directory tree files (tree.csv) on remote storage</title>
<path fill="none" stroke="black" d="M458.36,-519.7C458.36,-512.41 458.36,-503.73 458.36,-495.54"/>
<polygon fill="black" stroke="black" points="461.86,-495.62 458.36,-485.62 454.86,-495.62 461.86,-495.62"/>
</g>
<!-- getting tree.csv files using Samba -->
<g id="node3" class="node">
<title>getting tree.csv files using Samba</title>
<ellipse fill="none" stroke="black" cx="458.36" cy="-394" rx="141.11" ry="18"/>
<text text-anchor="middle" x="458.36" y="-389.8" font-family="Times,serif" font-size="14.00">getting tree.csv files using Samba</text>
</g>
<!-- create recursive directory tree files (tree.csv) on remote storage&#45;&gt;getting tree.csv files using Samba -->
<g id="edge2" class="edge">
<title>create recursive directory tree files (tree.csv) on remote storage-&gt;getting tree.csv files using Samba</title>
<path fill="none" stroke="black" d="M458.36,-447.7C458.36,-440.41 458.36,-431.73 458.36,-423.54"/>
<polygon fill="black" stroke="black" points="461.86,-423.62 458.36,-413.62 454.86,-423.62 461.86,-423.62"/>
</g>
<!-- bulk insert tree.csv content to raw tables -->
<g id="node4" class="node">
<title>bulk insert tree.csv content to raw tables</title>
<ellipse fill="none" stroke="black" cx="458.36" cy="-322" rx="166.84" ry="18"/>
<text text-anchor="middle" x="458.36" y="-317.8" font-family="Times,serif" font-size="14.00">bulk insert tree.csv content to raw tables</text>
</g>
<!-- getting tree.csv files using Samba&#45;&gt;bulk insert tree.csv content to raw tables -->
<g id="edge3" class="edge">
<title>getting tree.csv files using Samba-&gt;bulk insert tree.csv content to raw tables</title>
<path fill="none" stroke="black" d="M458.36,-375.7C458.36,-368.41 458.36,-359.73 458.36,-351.54"/>
<polygon fill="black" stroke="black" points="461.86,-351.62 458.36,-341.62 454.86,-351.62 461.86,-351.62"/>
</g>
<!-- edm layer &#39;tree&#39; table update -->
<g id="node5" class="node">
<title>edm layer 'tree' table update</title>
<ellipse fill="none" stroke="black" cx="458.36" cy="-250" rx="119.08" ry="18"/>
<text text-anchor="middle" x="458.36" y="-245.8" font-family="Times,serif" font-size="14.00">edm layer 'tree' table update</text>
</g>
<!-- bulk insert tree.csv content to raw tables&#45;&gt;edm layer &#39;tree&#39; table update -->
<g id="edge4" class="edge">
<title>bulk insert tree.csv content to raw tables-&gt;edm layer 'tree' table update</title>
<path fill="none" stroke="black" d="M458.36,-303.7C458.36,-296.41 458.36,-287.73 458.36,-279.54"/>
<polygon fill="black" stroke="black" points="461.86,-279.62 458.36,-269.62 454.86,-279.62 461.86,-279.62"/>
</g>
<!-- getting each new file using samba and saving its preview bytes and EXIF into &#39;edm.metadata&#39; table -->
<g id="node6" class="node">
<title>getting each new file using samba and saving its preview bytes and EXIF into 'edm.metadata' table</title>
<ellipse fill="none" stroke="black" cx="458.36" cy="-178" rx="392.64" ry="18"/>
<text text-anchor="middle" x="458.36" y="-173.8" font-family="Times,serif" font-size="14.00">getting each new file using samba and saving its preview bytes and EXIF into 'edm.metadata' table</text>
</g>
<!-- edm layer &#39;tree&#39; table update&#45;&gt;getting each new file using samba and saving its preview bytes and EXIF into &#39;edm.metadata&#39; table -->
<g id="edge5" class="edge">
<title>edm layer 'tree' table update-&gt;getting each new file using samba and saving its preview bytes and EXIF into 'edm.metadata' table</title>
<path fill="none" stroke="black" d="M458.36,-231.7C458.36,-224.41 458.36,-215.73 458.36,-207.54"/>
<polygon fill="black" stroke="black" points="461.86,-207.62 458.36,-197.62 454.86,-207.62 461.86,-207.62"/>
</g>
<!-- generating AI descriptions from each new &#39;edm.metadata&#39; preview saving result into &#39;edm.ai_description&#39; -->
<g id="node7" class="node">
<title>generating AI descriptions from each new 'edm.metadata' preview saving result into 'edm.ai_description'</title>
<ellipse fill="none" stroke="black" cx="458.36" cy="-106" rx="415.14" ry="18"/>
<text text-anchor="middle" x="458.36" y="-101.8" font-family="Times,serif" font-size="14.00">generating AI descriptions from each new 'edm.metadata' preview saving result into 'edm.ai_description'</text>
</g>
<!-- getting each new file using samba and saving its preview bytes and EXIF into &#39;edm.metadata&#39; table&#45;&gt;generating AI descriptions from each new &#39;edm.metadata&#39; preview saving result into &#39;edm.ai_description&#39; -->
<g id="edge6" class="edge">
<title>getting each new file using samba and saving its preview bytes and EXIF into 'edm.metadata' table-&gt;generating AI descriptions from each new 'edm.metadata' preview saving result into 'edm.ai_description'</title>
<path fill="none" stroke="black" d="M458.36,-159.7C458.36,-152.41 458.36,-143.73 458.36,-135.54"/>
<polygon fill="black" stroke="black" points="461.86,-135.62 458.36,-125.62 454.86,-135.62 461.86,-135.62"/>
</g>
<!-- updating datamarts in &#39;dm&#39; schema -->
<g id="node8" class="node">
<title>updating datamarts in 'dm' schema</title>
<ellipse fill="none" stroke="black" cx="458.36" cy="-34" rx="144.31" ry="18"/>
<text text-anchor="middle" x="458.36" y="-29.8" font-family="Times,serif" font-size="14.00">updating datamarts in 'dm' schema</text>
</g>
<!-- generating AI descriptions from each new &#39;edm.metadata&#39; preview saving result into &#39;edm.ai_description&#39;&#45;&gt;updating datamarts in &#39;dm&#39; schema -->
<g id="edge7" class="edge">
<title>generating AI descriptions from each new 'edm.metadata' preview saving result into 'edm.ai_description'-&gt;updating datamarts in 'dm' schema</title>
<path fill="none" stroke="black" d="M458.36,-87.7C458.36,-80.41 458.36,-71.73 458.36,-63.54"/>
<polygon fill="black" stroke="black" points="461.86,-63.62 458.36,-53.62 454.86,-63.62 461.86,-63.62"/>
</g>
<!-- dwh_import DAG stores new files and triggers dwh_refresh DAG -->
<g id="node9" class="node">
<title>dwh_import DAG stores new files and triggers dwh_refresh DAG</title>
<ellipse fill="none" stroke="black" cx="266.36" cy="-614.8" rx="266.36" ry="18"/>
<text text-anchor="middle" x="266.36" y="-610.6" font-family="Times,serif" font-size="14.00">dwh_import DAG stores new files and triggers dwh_refresh DAG</text>
</g>
<!-- dwh_import DAG stores new files and triggers dwh_refresh DAG&#45;&gt;dwh_refresh_start -->
<g id="edge8" class="edge">
<title>dwh_import DAG stores new files and triggers dwh_refresh DAG-&gt;dwh_refresh_start</title>
<path fill="none" stroke="black" d="M310.4,-596.64C339.82,-585.18 378.54,-570.09 409,-558.23"/>
<polygon fill="black" stroke="black" points="409.94,-561.62 417.98,-554.73 407.4,-555.1 409.94,-561.62"/>
</g>
<!-- daily Airflow schedule -->
<g id="node10" class="node">
<title>daily Airflow schedule</title>
<ellipse fill="none" stroke="black" cx="650.36" cy="-614.8" rx="99.53" ry="18"/>
<text text-anchor="middle" x="650.36" y="-610.6" font-family="Times,serif" font-size="14.00">daily Airflow schedule</text>
</g>
<!-- daily Airflow schedule&#45;&gt;dwh_refresh_start -->
<g id="edge9" class="edge">
<title>daily Airflow schedule-&gt;dwh_refresh_start</title>
<path fill="none" stroke="black" d="M609.64,-597.94C579.87,-586.34 539.34,-570.55 507.73,-558.23"/>
<polygon fill="black" stroke="black" points="509.38,-555.12 498.79,-554.75 506.83,-561.64 509.38,-555.12"/>
</g>
</g>
</svg>